<mxfile host="app.diagrams.net" modified="2020-10-13T00:56:11.645Z" agent="5.0 (Windows NT 10.0; Win64; x64) AppleWebKit/537.36 (KHTML, like Gecko) Chrome/85.0.4183.121 Safari/537.36" etag="XlZaiylXFtz___mC-hg3" version="13.7.8" type="github">
  <diagram id="uTPT8sLcpa1e0BykbdLk" name="Page-1">
    <mxGraphModel dx="1322" dy="668" grid="1" gridSize="10" guides="1" tooltips="1" connect="1" arrows="1" fold="1" page="1" pageScale="1" pageWidth="827" pageHeight="1169" math="0" shadow="0">
      <root>
        <mxCell id="0" />
        <mxCell id="1" parent="0" />
        <mxCell id="1TYJ5KsrgFMn8mMMUmhc-1" value="&lt;font style=&quot;font-size: 16px&quot;&gt;&lt;br&gt;&lt;/font&gt;" style="rounded=0;whiteSpace=wrap;html=1;fontSize=17;align=center;fillColor=#e1d5e7;strokeColor=#9673a6;opacity=80;" parent="1" vertex="1">
          <mxGeometry x="170" y="580" width="320" height="426.75" as="geometry" />
        </mxCell>
        <mxCell id="1TYJ5KsrgFMn8mMMUmhc-99" value="" style="rounded=0;whiteSpace=wrap;html=1;fontSize=17;align=center;fillColor=#f8cecc;strokeColor=#b85450;opacity=60;" parent="1" vertex="1">
          <mxGeometry x="210.08" y="876.75" width="268.6" height="98" as="geometry" />
        </mxCell>
        <mxCell id="1TYJ5KsrgFMn8mMMUmhc-72" value="" style="rounded=0;whiteSpace=wrap;html=1;fontSize=12;fillColor=#f5f5f5;strokeColor=#666666;fontColor=#333333;opacity=30;" parent="1" vertex="1">
          <mxGeometry x="511.13" y="1000" width="250" height="160" as="geometry" />
        </mxCell>
        <mxCell id="0y1YGnhRQW68st4rbFYn-91" value="" style="rounded=0;whiteSpace=wrap;html=1;fontSize=17;align=center;fillColor=#d5e8d4;strokeColor=#82b366;opacity=60;" parent="1" vertex="1">
          <mxGeometry x="171.75" y="40" width="320" height="480" as="geometry" />
        </mxCell>
        <mxCell id="0y1YGnhRQW68st4rbFYn-69" value="" style="rounded=0;whiteSpace=wrap;html=1;fontSize=17;opacity=60;align=center;fillColor=#fff2cc;strokeColor=#d6b656;" parent="1" vertex="1">
          <mxGeometry x="210" y="580.5" width="268.6" height="296.25" as="geometry" />
        </mxCell>
        <mxCell id="0y1YGnhRQW68st4rbFYn-2" value="&lt;font style=&quot;font-size: 16px&quot;&gt;&lt;b&gt;&lt;i&gt;S&lt;br&gt;h&lt;br&gt;e&lt;br&gt;l&lt;br&gt;l&lt;br&gt;e&lt;br&gt;y&lt;br&gt;&lt;br&gt;&amp;nbsp;&lt;br&gt;B&lt;br&gt;l&lt;br&gt;o&lt;br&gt;c&lt;br&gt;k&lt;/i&gt;&lt;/b&gt;&lt;/font&gt;" style="rounded=0;whiteSpace=wrap;html=1;align=center;fillColor=#dae8fc;strokeColor=#6c8ebf;" parent="1" vertex="1">
          <mxGeometry x="90" y="40" width="30" height="1120" as="geometry" />
        </mxCell>
        <mxCell id="0y1YGnhRQW68st4rbFYn-4" value="Previous Block Header: Hash SHA256" style="rounded=0;whiteSpace=wrap;html=1;fillColor=#f8cecc;strokeColor=#b85450;" parent="1" vertex="1">
          <mxGeometry x="209.85" y="100" width="267.5" height="30" as="geometry" />
        </mxCell>
        <mxCell id="0y1YGnhRQW68st4rbFYn-5" value="Block Issuer: Vkey" style="rounded=0;whiteSpace=wrap;html=1;fillColor=#f8cecc;strokeColor=#b85450;align=center;" parent="1" vertex="1">
          <mxGeometry x="209.85000000000002" y="130" width="267.5" height="30" as="geometry" />
        </mxCell>
        <mxCell id="0y1YGnhRQW68st4rbFYn-6" value="Block Issuer: VRF Verification Key" style="rounded=0;whiteSpace=wrap;html=1;fillColor=#f8cecc;strokeColor=#b85450;align=center;" parent="1" vertex="1">
          <mxGeometry x="209.85000000000002" y="160" width="267.5" height="30" as="geometry" />
        </mxCell>
        <mxCell id="0y1YGnhRQW68st4rbFYn-9" value="Block Header Eta: seedEta Nonce: Sign" style="rounded=0;whiteSpace=wrap;html=1;fillColor=#f8cecc;strokeColor=#b85450;align=center;" parent="1" vertex="1">
          <mxGeometry x="210" y="190" width="267.5" height="30" as="geometry" />
        </mxCell>
        <mxCell id="0y1YGnhRQW68st4rbFYn-12" value="Leader Election Value/Proof: seedL" style="rounded=0;whiteSpace=wrap;html=1;fillColor=#f8cecc;strokeColor=#b85450;align=center;" parent="1" vertex="1">
          <mxGeometry x="209.85000000000002" y="220" width="267.5" height="30" as="geometry" />
        </mxCell>
        <mxCell id="0y1YGnhRQW68st4rbFYn-14" value="Block Body Size : N" style="rounded=0;whiteSpace=wrap;html=1;fillColor=#f8cecc;strokeColor=#b85450;align=center;" parent="1" vertex="1">
          <mxGeometry x="209.85" y="250" width="267.5" height="30" as="geometry" />
        </mxCell>
        <mxCell id="1TYJ5KsrgFMn8mMMUmhc-37" style="edgeStyle=orthogonalEdgeStyle;rounded=0;orthogonalLoop=1;jettySize=auto;html=1;fontSize=12;dashed=1;strokeWidth=2;" parent="1" source="0y1YGnhRQW68st4rbFYn-15" edge="1">
          <mxGeometry relative="1" as="geometry">
            <Array as="points">
              <mxPoint x="530" y="295" />
              <mxPoint x="530" y="840" />
            </Array>
            <mxPoint x="500" y="840" as="targetPoint" />
          </mxGeometry>
        </mxCell>
        <mxCell id="0y1YGnhRQW68st4rbFYn-15" value="Block Body Hash : SHA256?" style="rounded=0;whiteSpace=wrap;html=1;fillColor=#f8cecc;strokeColor=#b85450;align=center;" parent="1" vertex="1">
          <mxGeometry x="209.85" y="280" width="267.5" height="30" as="geometry" />
        </mxCell>
        <mxCell id="0y1YGnhRQW68st4rbFYn-16" value="" style="rounded=0;whiteSpace=wrap;html=1;fillColor=#fff2cc;strokeColor=#d6b656;align=center;opacity=40;" parent="1" vertex="1">
          <mxGeometry x="209.85" y="310" width="267.5" height="170" as="geometry" />
        </mxCell>
        <mxCell id="0y1YGnhRQW68st4rbFYn-17" value="Operational (Hot) Key : KES vkey" style="rounded=0;whiteSpace=wrap;html=1;fillColor=#d5e8d4;strokeColor=#82b366;align=center;" parent="1" vertex="1">
          <mxGeometry x="217.98" y="350" width="251.25" height="30" as="geometry" />
        </mxCell>
        <mxCell id="0y1YGnhRQW68st4rbFYn-18" value="Operational Certificate" style="text;html=1;strokeColor=none;fillColor=none;align=center;verticalAlign=middle;whiteSpace=wrap;rounded=0;fontStyle=3" parent="1" vertex="1">
          <mxGeometry x="254.85" y="314" width="140" height="30" as="geometry" />
        </mxCell>
        <mxCell id="0y1YGnhRQW68st4rbFYn-19" value="Certificate Issue Number : Cold counter" style="rounded=0;whiteSpace=wrap;html=1;fillColor=#d5e8d4;strokeColor=#82b366;align=center;" parent="1" vertex="1">
          <mxGeometry x="217.98" y="380" width="251.25" height="30" as="geometry" />
        </mxCell>
        <mxCell id="0y1YGnhRQW68st4rbFYn-20" value="Start Kes Period : Slot/SlotsPerKeSPEriod" style="rounded=0;whiteSpace=wrap;html=1;fillColor=#d5e8d4;strokeColor=#82b366;align=center;" parent="1" vertex="1">
          <mxGeometry x="217.98" y="410" width="251.25" height="30" as="geometry" />
        </mxCell>
        <mxCell id="0y1YGnhRQW68st4rbFYn-21" value="Cold Key Signature : Sig" style="rounded=0;whiteSpace=wrap;html=1;fillColor=#d5e8d4;strokeColor=#82b366;align=center;" parent="1" vertex="1">
          <mxGeometry x="217.98" y="440" width="251.25" height="30" as="geometry" />
        </mxCell>
        <mxCell id="0y1YGnhRQW68st4rbFYn-22" value="Protocol Version :&amp;nbsp;" style="rounded=0;whiteSpace=wrap;html=1;fillColor=#f8cecc;strokeColor=#b85450;align=center;" parent="1" vertex="1">
          <mxGeometry x="210" y="480" width="267.5" height="30" as="geometry" />
        </mxCell>
        <mxCell id="0y1YGnhRQW68st4rbFYn-36" value="&amp;nbsp;Transaction ID" style="rounded=0;whiteSpace=wrap;html=1;fontSize=12;opacity=40;align=center;fillColor=#ffe6cc;strokeColor=#d79b00;" parent="1" vertex="1">
          <mxGeometry x="535" y="635" width="95" height="30" as="geometry" />
        </mxCell>
        <mxCell id="0y1YGnhRQW68st4rbFYn-38" value="IDX" style="rounded=0;whiteSpace=wrap;html=1;fontSize=12;opacity=40;align=center;fillColor=#ffe6cc;strokeColor=#d79b00;" parent="1" vertex="1">
          <mxGeometry x="629.13" y="635" width="30.87" height="30" as="geometry" />
        </mxCell>
        <mxCell id="0y1YGnhRQW68st4rbFYn-45" value="&lt;font style=&quot;font-size: 12px&quot;&gt;&lt;b&gt;&lt;i&gt;Transaction Body&lt;/i&gt;&lt;/b&gt;&lt;/font&gt;" style="text;html=1;strokeColor=none;fillColor=none;align=center;verticalAlign=middle;whiteSpace=wrap;rounded=0;fontSize=17;opacity=40;" parent="1" vertex="1">
          <mxGeometry x="268.6000000000001" y="581.75" width="150" height="20" as="geometry" />
        </mxCell>
        <mxCell id="0y1YGnhRQW68st4rbFYn-46" value="&lt;font style=&quot;font-size: 12px&quot;&gt;Transaction Inputs : 1 .. N&lt;/font&gt;" style="rounded=0;whiteSpace=wrap;html=1;fontSize=17;opacity=90;align=center;fillColor=#ffe6cc;strokeColor=#d79b00;imageHeight=24;" parent="1" vertex="1">
          <mxGeometry x="219.3" y="608.25" width="250" height="33.5" as="geometry" />
        </mxCell>
        <mxCell id="0y1YGnhRQW68st4rbFYn-47" value="&lt;font style=&quot;font-size: 12px&quot;&gt;Transaction Outputs : 1..N&lt;/font&gt;" style="rounded=0;whiteSpace=wrap;html=1;fontSize=17;opacity=90;align=center;fillColor=#ffe6cc;strokeColor=#d79b00;imageHeight=24;" parent="1" vertex="1">
          <mxGeometry x="219.3" y="641.75" width="250" height="33.5" as="geometry" />
        </mxCell>
        <mxCell id="0y1YGnhRQW68st4rbFYn-48" value="&lt;font style=&quot;font-size: 12px&quot;&gt;Certificates : 0 .. N&lt;/font&gt;" style="rounded=0;whiteSpace=wrap;html=1;fontSize=17;opacity=90;align=center;fillColor=#ffe6cc;strokeColor=#d79b00;imageHeight=24;" parent="1" vertex="1">
          <mxGeometry x="219.3" y="675.25" width="250" height="33.5" as="geometry" />
        </mxCell>
        <mxCell id="0y1YGnhRQW68st4rbFYn-49" value="&lt;font style=&quot;font-size: 12px&quot;&gt;Fee&lt;/font&gt;" style="rounded=0;whiteSpace=wrap;html=1;fontSize=17;opacity=90;align=center;fillColor=#ffe6cc;strokeColor=#d79b00;imageHeight=24;" parent="1" vertex="1">
          <mxGeometry x="219.3" y="708.75" width="250" height="33.5" as="geometry" />
        </mxCell>
        <mxCell id="0y1YGnhRQW68st4rbFYn-50" value="&lt;font style=&quot;font-size: 12px&quot;&gt;Time To Live&lt;/font&gt;" style="rounded=0;whiteSpace=wrap;html=1;fontSize=17;opacity=90;align=center;fillColor=#ffe6cc;strokeColor=#d79b00;imageHeight=24;" parent="1" vertex="1">
          <mxGeometry x="219.3" y="742.25" width="250" height="33.5" as="geometry" />
        </mxCell>
        <mxCell id="0y1YGnhRQW68st4rbFYn-51" value="&lt;font style=&quot;font-size: 12px&quot;&gt;Reward Withd : {addr : coin,..}&lt;/font&gt;" style="rounded=0;whiteSpace=wrap;html=1;fontSize=17;opacity=90;align=center;fillColor=#ffe6cc;strokeColor=#d79b00;imageHeight=24;" parent="1" vertex="1">
          <mxGeometry x="219.3" y="775.75" width="250" height="33.5" as="geometry" />
        </mxCell>
        <mxCell id="0y1YGnhRQW68st4rbFYn-52" value="&lt;font style=&quot;font-size: 12px&quot;&gt;Update Proposal&lt;/font&gt;" style="rounded=0;whiteSpace=wrap;html=1;fontSize=17;opacity=90;align=center;fillColor=#ffe6cc;strokeColor=#d79b00;imageHeight=24;" parent="1" vertex="1">
          <mxGeometry x="219.3" y="809.25" width="250" height="33.5" as="geometry" />
        </mxCell>
        <mxCell id="0y1YGnhRQW68st4rbFYn-53" value="&lt;font style=&quot;font-size: 12px&quot;&gt;Metadata Hash&lt;/font&gt;" style="rounded=0;whiteSpace=wrap;html=1;fontSize=17;opacity=90;align=center;fillColor=#ffe6cc;strokeColor=#d79b00;imageHeight=24;" parent="1" vertex="1">
          <mxGeometry x="219.3" y="842.75" width="250" height="33.5" as="geometry" />
        </mxCell>
        <mxCell id="0y1YGnhRQW68st4rbFYn-54" value="&lt;font style=&quot;font-size: 12px&quot;&gt;{ Verification Keys : Sign, ... }&lt;/font&gt;" style="rounded=0;whiteSpace=wrap;html=1;fontSize=17;align=center;fillColor=#f8cecc;strokeColor=#b85450;" parent="1" vertex="1">
          <mxGeometry x="219.38000000000002" y="911.75" width="250" height="30" as="geometry" />
        </mxCell>
        <mxCell id="0y1YGnhRQW68st4rbFYn-55" value="&lt;font style=&quot;font-size: 12px&quot;&gt;&amp;nbsp;{ Hash(Script) : Script, ... }&lt;/font&gt;" style="rounded=0;whiteSpace=wrap;html=1;fontSize=17;align=center;fillColor=#f8cecc;strokeColor=#b85450;" parent="1" vertex="1">
          <mxGeometry x="219.38000000000002" y="941.75" width="250" height="33" as="geometry" />
        </mxCell>
        <mxCell id="0y1YGnhRQW68st4rbFYn-56" value="&lt;font style=&quot;font-size: 12px;&quot;&gt;Optional Medadata&lt;/font&gt;" style="rounded=0;whiteSpace=wrap;html=1;fontSize=12;align=center;fillColor=#d5e8d4;strokeColor=#82b366;fontStyle=3;opacity=60;" parent="1" vertex="1">
          <mxGeometry x="210" y="974.75" width="268.6" height="32" as="geometry" />
        </mxCell>
        <mxCell id="0y1YGnhRQW68st4rbFYn-87" value="&lt;font style=&quot;font-size: 16px&quot;&gt;B&lt;br&gt;l&lt;br&gt;o&lt;br&gt;c&lt;br&gt;k&lt;br&gt;&amp;nbsp;&lt;br&gt;H&lt;br&gt;e&lt;br&gt;a&lt;br&gt;d&lt;br&gt;e&lt;br&gt;r&lt;/font&gt;" style="rounded=0;whiteSpace=wrap;html=1;fontSize=17;align=center;fillColor=#d5e8d4;strokeColor=#82b366;" parent="1" vertex="1">
          <mxGeometry x="129.38" y="40" width="30" height="530" as="geometry" />
        </mxCell>
        <mxCell id="0y1YGnhRQW68st4rbFYn-88" value="&lt;font style=&quot;font-size: 16px&quot;&gt;B&lt;br&gt;l&lt;br&gt;o&lt;br&gt;c&lt;br&gt;k&lt;br&gt;&amp;nbsp;&lt;br&gt;B&lt;br&gt;o&lt;br&gt;d&lt;br&gt;y&lt;/font&gt;" style="rounded=0;whiteSpace=wrap;html=1;fontSize=17;align=center;fillColor=#e1d5e7;strokeColor=#9673a6;" parent="1" vertex="1">
          <mxGeometry x="129.38" y="581.75" width="30" height="578.25" as="geometry" />
        </mxCell>
        <mxCell id="0y1YGnhRQW68st4rbFYn-90" value="&lt;font style=&quot;font-size: 12px&quot;&gt;KES Signature&lt;br style=&quot;font-size: 12px&quot;&gt;&lt;/font&gt;" style="rounded=0;whiteSpace=wrap;html=1;fontSize=12;align=center;fillColor=#d5e8d4;strokeColor=#82b366;opacity=60;" parent="1" vertex="1">
          <mxGeometry x="171.75" y="530" width="320" height="40" as="geometry" />
        </mxCell>
        <mxCell id="0y1YGnhRQW68st4rbFYn-101" value="..." style="text;html=1;strokeColor=none;fillColor=none;align=center;verticalAlign=middle;whiteSpace=wrap;rounded=0;fontSize=16;opacity=60;fontStyle=1" parent="1" vertex="1">
          <mxGeometry x="304.85" y="1140" width="40" height="20" as="geometry" />
        </mxCell>
        <mxCell id="1TYJ5KsrgFMn8mMMUmhc-2" value="B&lt;br style=&quot;font-size: 17px&quot;&gt;l&lt;br style=&quot;font-size: 17px&quot;&gt;o&lt;br style=&quot;font-size: 17px&quot;&gt;c&lt;br style=&quot;font-size: 17px&quot;&gt;k&lt;br style=&quot;font-size: 17px&quot;&gt;&amp;nbsp;&lt;br&gt;H&lt;br style=&quot;font-size: 17px&quot;&gt;e&lt;br style=&quot;font-size: 17px&quot;&gt;a&lt;br style=&quot;font-size: 17px&quot;&gt;d&lt;br style=&quot;font-size: 17px&quot;&gt;e&lt;br style=&quot;font-size: 17px&quot;&gt;r&lt;br style=&quot;font-size: 17px&quot;&gt;&amp;nbsp;&lt;br style=&quot;font-size: 17px&quot;&gt;B&lt;br style=&quot;font-size: 17px&quot;&gt;o&lt;br style=&quot;font-size: 17px&quot;&gt;d&lt;br style=&quot;font-size: 17px&quot;&gt;y" style="text;html=1;strokeColor=none;fillColor=none;align=center;verticalAlign=middle;whiteSpace=wrap;rounded=0;fontSize=17;" parent="1" vertex="1">
          <mxGeometry x="170" y="120" width="40" height="340" as="geometry" />
        </mxCell>
        <mxCell id="1TYJ5KsrgFMn8mMMUmhc-3" value="T&lt;br&gt;r&lt;br&gt;a&lt;br&gt;n&lt;br&gt;s&lt;br&gt;a&lt;br&gt;c&lt;br&gt;t&lt;br&gt;i&lt;br&gt;o&lt;br&gt;n&lt;br&gt;&lt;br&gt;&lt;b&gt;0&lt;/b&gt;" style="text;html=1;strokeColor=none;fillColor=none;align=center;verticalAlign=middle;whiteSpace=wrap;rounded=0;fontSize=17;" parent="1" vertex="1">
          <mxGeometry x="169.84999999999997" y="563.25" width="40" height="340" as="geometry" />
        </mxCell>
        <mxCell id="1TYJ5KsrgFMn8mMMUmhc-5" value="&lt;font style=&quot;font-size: 16px&quot;&gt;Transaction &lt;b&gt;...&lt;/b&gt;&lt;br&gt;&lt;/font&gt;" style="rounded=0;whiteSpace=wrap;html=1;fontSize=17;align=center;fillColor=#e1d5e7;strokeColor=#9673a6;opacity=80;" parent="1" vertex="1">
          <mxGeometry x="171.74999999999997" y="1015.1300000000001" width="320" height="53.25" as="geometry" />
        </mxCell>
        <mxCell id="1TYJ5KsrgFMn8mMMUmhc-6" value="&lt;font style=&quot;font-size: 16px&quot;&gt;Transaction &lt;b&gt;N&lt;/b&gt;&lt;br&gt;&lt;/font&gt;" style="rounded=0;whiteSpace=wrap;html=1;fontSize=17;align=center;fillColor=#e1d5e7;strokeColor=#9673a6;opacity=80;" parent="1" vertex="1">
          <mxGeometry x="171.74999999999997" y="1075.13" width="320" height="53.25" as="geometry" />
        </mxCell>
        <mxCell id="1TYJ5KsrgFMn8mMMUmhc-14" value="" style="rounded=0;whiteSpace=wrap;html=1;align=center;fillColor=#dae8fc;strokeColor=#6c8ebf;" parent="1" vertex="1">
          <mxGeometry x="10" y="40" width="50" height="491" as="geometry" />
        </mxCell>
        <mxCell id="1TYJ5KsrgFMn8mMMUmhc-40" style="edgeStyle=orthogonalEdgeStyle;rounded=0;orthogonalLoop=1;jettySize=auto;html=1;exitX=1;exitY=0.75;exitDx=0;exitDy=0;entryX=1;entryY=0.25;entryDx=0;entryDy=0;dashed=1;strokeWidth=2;fontSize=12;" parent="1" source="1TYJ5KsrgFMn8mMMUmhc-15" target="1TYJ5KsrgFMn8mMMUmhc-16" edge="1">
          <mxGeometry relative="1" as="geometry" />
        </mxCell>
        <mxCell id="1TYJ5KsrgFMn8mMMUmhc-15" value="&lt;font style=&quot;font-size: 16px&quot;&gt;B&lt;br&gt;l&lt;br&gt;o&lt;br&gt;c&lt;br&gt;k&lt;br&gt;&amp;nbsp;&lt;br&gt;H&lt;br&gt;e&lt;br&gt;a&lt;br&gt;d&lt;br&gt;e&lt;br&gt;r&lt;/font&gt;" style="rounded=0;whiteSpace=wrap;html=1;fontSize=17;align=center;fillColor=#d5e8d4;strokeColor=#82b366;" parent="1" vertex="1">
          <mxGeometry x="20" y="40" width="30" height="251" as="geometry" />
        </mxCell>
        <mxCell id="1TYJ5KsrgFMn8mMMUmhc-16" value="&lt;font style=&quot;font-size: 16px&quot;&gt;B&lt;br&gt;l&lt;br&gt;o&lt;br&gt;c&lt;br&gt;k&lt;br&gt;&amp;nbsp;&lt;br&gt;B&lt;br&gt;o&lt;br&gt;d&lt;br&gt;y&lt;/font&gt;" style="rounded=0;whiteSpace=wrap;html=1;fontSize=17;align=center;fillColor=#e1d5e7;strokeColor=#9673a6;" parent="1" vertex="1">
          <mxGeometry x="20" y="296" width="30" height="235" as="geometry" />
        </mxCell>
        <mxCell id="1TYJ5KsrgFMn8mMMUmhc-20" value="" style="rounded=0;whiteSpace=wrap;html=1;align=center;fillColor=#dae8fc;strokeColor=#6c8ebf;" parent="1" vertex="1">
          <mxGeometry x="540" y="40" width="50" height="491" as="geometry" />
        </mxCell>
        <mxCell id="1TYJ5KsrgFMn8mMMUmhc-27" style="edgeStyle=orthogonalEdgeStyle;rounded=0;orthogonalLoop=1;jettySize=auto;html=1;fontSize=12;exitX=0;exitY=0.25;exitDx=0;exitDy=0;entryX=1;entryY=0.25;entryDx=0;entryDy=0;" parent="1" source="1TYJ5KsrgFMn8mMMUmhc-21" target="0y1YGnhRQW68st4rbFYn-91" edge="1">
          <mxGeometry relative="1" as="geometry">
            <mxPoint x="500" y="120" as="targetPoint" />
          </mxGeometry>
        </mxCell>
        <mxCell id="1TYJ5KsrgFMn8mMMUmhc-38" style="edgeStyle=orthogonalEdgeStyle;rounded=0;orthogonalLoop=1;jettySize=auto;html=1;entryX=1;entryY=0.25;entryDx=0;entryDy=0;dashed=1;fontSize=12;exitX=1;exitY=0.75;exitDx=0;exitDy=0;strokeWidth=2;" parent="1" source="1TYJ5KsrgFMn8mMMUmhc-21" target="1TYJ5KsrgFMn8mMMUmhc-22" edge="1">
          <mxGeometry relative="1" as="geometry">
            <Array as="points">
              <mxPoint x="610" y="228" />
              <mxPoint x="610" y="355" />
            </Array>
          </mxGeometry>
        </mxCell>
        <mxCell id="1TYJ5KsrgFMn8mMMUmhc-21" value="&lt;font style=&quot;font-size: 16px&quot;&gt;B&lt;br&gt;l&lt;br&gt;o&lt;br&gt;c&lt;br&gt;k&lt;br&gt;&amp;nbsp;&lt;br&gt;H&lt;br&gt;e&lt;br&gt;a&lt;br&gt;d&lt;br&gt;e&lt;br&gt;r&lt;/font&gt;" style="rounded=0;whiteSpace=wrap;html=1;fontSize=17;align=center;fillColor=#d5e8d4;strokeColor=#82b366;" parent="1" vertex="1">
          <mxGeometry x="550" y="40" width="30" height="251" as="geometry" />
        </mxCell>
        <mxCell id="1TYJ5KsrgFMn8mMMUmhc-22" value="&lt;font style=&quot;font-size: 16px&quot;&gt;B&lt;br&gt;l&lt;br&gt;o&lt;br&gt;c&lt;br&gt;k&lt;br&gt;&amp;nbsp;&lt;br&gt;B&lt;br&gt;o&lt;br&gt;d&lt;br&gt;y&lt;/font&gt;" style="rounded=0;whiteSpace=wrap;html=1;fontSize=17;align=center;fillColor=#e1d5e7;strokeColor=#9673a6;" parent="1" vertex="1">
          <mxGeometry x="550" y="296" width="30" height="235" as="geometry" />
        </mxCell>
        <mxCell id="1TYJ5KsrgFMn8mMMUmhc-23" value="" style="rounded=0;whiteSpace=wrap;html=1;align=center;fillColor=#dae8fc;strokeColor=#6c8ebf;" parent="1" vertex="1">
          <mxGeometry x="660" y="40" width="50" height="491" as="geometry" />
        </mxCell>
        <mxCell id="1TYJ5KsrgFMn8mMMUmhc-34" style="edgeStyle=orthogonalEdgeStyle;rounded=0;orthogonalLoop=1;jettySize=auto;html=1;entryX=1;entryY=0.25;entryDx=0;entryDy=0;fontSize=12;exitX=0;exitY=0.25;exitDx=0;exitDy=0;" parent="1" source="1TYJ5KsrgFMn8mMMUmhc-24" target="1TYJ5KsrgFMn8mMMUmhc-20" edge="1">
          <mxGeometry relative="1" as="geometry" />
        </mxCell>
        <mxCell id="1TYJ5KsrgFMn8mMMUmhc-39" style="edgeStyle=orthogonalEdgeStyle;rounded=0;orthogonalLoop=1;jettySize=auto;html=1;exitX=1;exitY=0.75;exitDx=0;exitDy=0;entryX=1;entryY=0.25;entryDx=0;entryDy=0;dashed=1;strokeWidth=2;fontSize=12;" parent="1" source="1TYJ5KsrgFMn8mMMUmhc-24" target="1TYJ5KsrgFMn8mMMUmhc-25" edge="1">
          <mxGeometry relative="1" as="geometry">
            <Array as="points">
              <mxPoint x="730" y="228" />
              <mxPoint x="730" y="355" />
            </Array>
          </mxGeometry>
        </mxCell>
        <mxCell id="1TYJ5KsrgFMn8mMMUmhc-24" value="&lt;font style=&quot;font-size: 16px&quot;&gt;B&lt;br&gt;l&lt;br&gt;o&lt;br&gt;c&lt;br&gt;k&lt;br&gt;&amp;nbsp;&lt;br&gt;H&lt;br&gt;e&lt;br&gt;a&lt;br&gt;d&lt;br&gt;e&lt;br&gt;r&lt;/font&gt;" style="rounded=0;whiteSpace=wrap;html=1;fontSize=17;align=center;fillColor=#d5e8d4;strokeColor=#82b366;" parent="1" vertex="1">
          <mxGeometry x="670" y="40" width="30" height="251" as="geometry" />
        </mxCell>
        <mxCell id="1TYJ5KsrgFMn8mMMUmhc-25" value="&lt;font style=&quot;font-size: 16px&quot;&gt;B&lt;br&gt;l&lt;br&gt;o&lt;br&gt;c&lt;br&gt;k&lt;br&gt;&amp;nbsp;&lt;br&gt;B&lt;br&gt;o&lt;br&gt;d&lt;br&gt;y&lt;/font&gt;" style="rounded=0;whiteSpace=wrap;html=1;fontSize=17;align=center;fillColor=#e1d5e7;strokeColor=#9673a6;" parent="1" vertex="1">
          <mxGeometry x="670" y="296" width="30" height="235" as="geometry" />
        </mxCell>
        <mxCell id="1TYJ5KsrgFMn8mMMUmhc-30" value="&lt;font style=&quot;font-size: 12px&quot;&gt;Certificates&lt;/font&gt;" style="rounded=0;whiteSpace=wrap;html=1;fontSize=17;opacity=90;align=center;fillColor=#ffe6cc;strokeColor=#d79b00;imageHeight=24;fontStyle=1" parent="1" vertex="1">
          <mxGeometry x="600.63" y="750" width="124" height="33.5" as="geometry" />
        </mxCell>
        <mxCell id="1TYJ5KsrgFMn8mMMUmhc-31" value="Stake Key Reg Cert" style="rounded=0;whiteSpace=wrap;html=1;fontSize=12;align=center;fillColor=#ffe6cc;strokeColor=#d79b00;opacity=40;" parent="1" vertex="1">
          <mxGeometry x="600.63" y="783.5" width="124" height="33.5" as="geometry" />
        </mxCell>
        <mxCell id="1TYJ5KsrgFMn8mMMUmhc-32" value="Stake Pool Reg Cert" style="rounded=0;whiteSpace=wrap;html=1;fontSize=12;align=center;fillColor=#ffe6cc;strokeColor=#d79b00;opacity=40;" parent="1" vertex="1">
          <mxGeometry x="600.63" y="817" width="124" height="33.5" as="geometry" />
        </mxCell>
        <mxCell id="1TYJ5KsrgFMn8mMMUmhc-33" value="Delegation Cert" style="rounded=0;whiteSpace=wrap;html=1;fontSize=12;align=center;fillColor=#ffe6cc;strokeColor=#d79b00;opacity=40;" parent="1" vertex="1">
          <mxGeometry x="600.63" y="850.5" width="124" height="33.5" as="geometry" />
        </mxCell>
        <mxCell id="1TYJ5KsrgFMn8mMMUmhc-42" value="Block 2" style="text;html=1;strokeColor=none;fillColor=none;align=center;verticalAlign=middle;whiteSpace=wrap;rounded=0;fontSize=14;opacity=60;fontStyle=1" parent="1" vertex="1">
          <mxGeometry x="171.75" y="10" width="68.25" height="20" as="geometry" />
        </mxCell>
        <mxCell id="1TYJ5KsrgFMn8mMMUmhc-43" value="Block 1" style="text;html=1;strokeColor=none;fillColor=none;align=center;verticalAlign=middle;whiteSpace=wrap;rounded=0;fontSize=14;opacity=60;fontStyle=1" parent="1" vertex="1">
          <mxGeometry x="10" y="10" width="60" height="20" as="geometry" />
        </mxCell>
        <mxCell id="1TYJ5KsrgFMn8mMMUmhc-44" value="Block 3" style="text;html=1;strokeColor=none;fillColor=none;align=center;verticalAlign=middle;whiteSpace=wrap;rounded=0;fontSize=14;opacity=60;fontStyle=1" parent="1" vertex="1">
          <mxGeometry x="540" y="10" width="70" height="20" as="geometry" />
        </mxCell>
        <mxCell id="1TYJ5KsrgFMn8mMMUmhc-45" value="Block 4" style="text;html=1;strokeColor=none;fillColor=none;align=center;verticalAlign=middle;whiteSpace=wrap;rounded=0;fontSize=14;opacity=60;fontStyle=1" parent="1" vertex="1">
          <mxGeometry x="660" y="10" width="58.25" height="20" as="geometry" />
        </mxCell>
        <mxCell id="1TYJ5KsrgFMn8mMMUmhc-48" value="Blocks&amp;nbsp;..." style="text;html=1;strokeColor=none;fillColor=none;align=center;verticalAlign=middle;whiteSpace=wrap;rounded=0;fontSize=14;opacity=60;fontStyle=1" parent="1" vertex="1">
          <mxGeometry x="740" y="10" width="68.25" height="20" as="geometry" />
        </mxCell>
        <mxCell id="1TYJ5KsrgFMn8mMMUmhc-49" value="&lt;font style=&quot;font-size: 12px&quot;&gt;&lt;b style=&quot;font-size: 12px&quot;&gt;&lt;i style=&quot;font-size: 12px&quot;&gt;TX15#0&lt;/i&gt;&lt;/b&gt;&lt;/font&gt;" style="text;html=1;strokeColor=none;fillColor=none;align=center;verticalAlign=middle;whiteSpace=wrap;rounded=0;fontSize=12;opacity=40;" parent="1" vertex="1">
          <mxGeometry x="767.63" y="1055" width="53" height="20" as="geometry" />
        </mxCell>
        <mxCell id="1TYJ5KsrgFMn8mMMUmhc-58" value="&amp;nbsp;Transaction Inputs" style="rounded=0;whiteSpace=wrap;html=1;fontSize=12;align=center;fillColor=#ffe6cc;strokeColor=#d79b00;fontStyle=1" parent="1" vertex="1">
          <mxGeometry x="535" y="605" width="125" height="30" as="geometry" />
        </mxCell>
        <mxCell id="1TYJ5KsrgFMn8mMMUmhc-63" value="&amp;nbsp;Transaction Outputs" style="rounded=0;whiteSpace=wrap;html=1;fontSize=12;align=center;fillColor=#ffe6cc;strokeColor=#d79b00;fontStyle=1" parent="1" vertex="1">
          <mxGeometry x="670" y="605" width="125" height="30" as="geometry" />
        </mxCell>
        <mxCell id="1TYJ5KsrgFMn8mMMUmhc-64" value="Address" style="rounded=0;whiteSpace=wrap;html=1;fontSize=12;opacity=40;align=center;fillColor=#ffe6cc;strokeColor=#d79b00;" parent="1" vertex="1">
          <mxGeometry x="670" y="635" width="85" height="30" as="geometry" />
        </mxCell>
        <mxCell id="1TYJ5KsrgFMn8mMMUmhc-65" value="Coin" style="rounded=0;whiteSpace=wrap;html=1;fontSize=12;opacity=40;align=center;fillColor=#ffe6cc;strokeColor=#d79b00;" parent="1" vertex="1">
          <mxGeometry x="755" y="635" width="40" height="30" as="geometry" />
        </mxCell>
        <mxCell id="1TYJ5KsrgFMn8mMMUmhc-66" value="..." style="text;html=1;strokeColor=none;fillColor=none;align=center;verticalAlign=middle;whiteSpace=wrap;rounded=0;fontSize=16;opacity=60;fontStyle=1" parent="1" vertex="1">
          <mxGeometry x="715" y="665" width="40" height="20" as="geometry" />
        </mxCell>
        <mxCell id="1TYJ5KsrgFMn8mMMUmhc-67" value="..." style="text;html=1;strokeColor=none;fillColor=none;align=center;verticalAlign=middle;whiteSpace=wrap;rounded=0;fontSize=16;opacity=60;fontStyle=1" parent="1" vertex="1">
          <mxGeometry x="577.5" y="723.25" width="40" height="20" as="geometry" />
        </mxCell>
        <mxCell id="1TYJ5KsrgFMn8mMMUmhc-68" value="&amp;nbsp;Transaction ID" style="rounded=0;whiteSpace=wrap;html=1;fontSize=12;opacity=40;align=center;fillColor=#ffe6cc;strokeColor=#d79b00;" parent="1" vertex="1">
          <mxGeometry x="535" y="665" width="95" height="30" as="geometry" />
        </mxCell>
        <mxCell id="1TYJ5KsrgFMn8mMMUmhc-69" value="IDX" style="rounded=0;whiteSpace=wrap;html=1;fontSize=12;opacity=40;align=center;fillColor=#ffe6cc;strokeColor=#d79b00;" parent="1" vertex="1">
          <mxGeometry x="629.13" y="665" width="30.87" height="30" as="geometry" />
        </mxCell>
        <mxCell id="1TYJ5KsrgFMn8mMMUmhc-70" value="&amp;nbsp;Transaction ID" style="rounded=0;whiteSpace=wrap;html=1;fontSize=12;opacity=40;align=center;fillColor=#ffe6cc;strokeColor=#d79b00;" parent="1" vertex="1">
          <mxGeometry x="535" y="695" width="95" height="30" as="geometry" />
        </mxCell>
        <mxCell id="1TYJ5KsrgFMn8mMMUmhc-71" value="IDX" style="rounded=0;whiteSpace=wrap;html=1;fontSize=12;opacity=40;align=center;fillColor=#ffe6cc;strokeColor=#d79b00;" parent="1" vertex="1">
          <mxGeometry x="629.13" y="695" width="30.87" height="30" as="geometry" />
        </mxCell>
        <mxCell id="1TYJ5KsrgFMn8mMMUmhc-73" value="&amp;nbsp;Transaction Inputs" style="rounded=0;whiteSpace=wrap;html=1;fontSize=12;align=center;fillColor=#ffe6cc;strokeColor=#d79b00;" parent="1" vertex="1">
          <mxGeometry x="504.63" y="1020" width="125" height="30" as="geometry" />
        </mxCell>
        <mxCell id="1TYJ5KsrgFMn8mMMUmhc-75" value="Transaction outputs" style="rounded=0;whiteSpace=wrap;html=1;fontSize=12;align=center;fillColor=#ffe6cc;strokeColor=#d79b00;" parent="1" vertex="1">
          <mxGeometry x="642.63" y="1020" width="125.5" height="30" as="geometry" />
        </mxCell>
        <mxCell id="1TYJ5KsrgFMn8mMMUmhc-78" value="TX1" style="rounded=0;whiteSpace=wrap;html=1;fontSize=12;opacity=40;align=center;fillColor=#ffe6cc;strokeColor=#d79b00;" parent="1" vertex="1">
          <mxGeometry x="504.63" y="1050" width="95" height="30" as="geometry" />
        </mxCell>
        <mxCell id="1TYJ5KsrgFMn8mMMUmhc-79" value="0" style="rounded=0;whiteSpace=wrap;html=1;fontSize=12;opacity=40;align=center;fillColor=#ffe6cc;strokeColor=#d79b00;" parent="1" vertex="1">
          <mxGeometry x="598.76" y="1050" width="30.87" height="30" as="geometry" />
        </mxCell>
        <mxCell id="1TYJ5KsrgFMn8mMMUmhc-80" value="Address 1" style="rounded=0;whiteSpace=wrap;html=1;fontSize=12;opacity=40;align=center;fillColor=#ffe6cc;strokeColor=#d79b00;fontColor=#FF0000;fontStyle=1" parent="1" vertex="1">
          <mxGeometry x="642.63" y="1050" width="85" height="30" as="geometry" />
        </mxCell>
        <mxCell id="1TYJ5KsrgFMn8mMMUmhc-81" value="5 ADA" style="rounded=0;whiteSpace=wrap;html=1;fontSize=12;opacity=40;align=center;fillColor=#ffe6cc;strokeColor=#d79b00;fontColor=#FF0000;fontStyle=1" parent="1" vertex="1">
          <mxGeometry x="727.63" y="1050" width="40.5" height="30" as="geometry" />
        </mxCell>
        <mxCell id="1TYJ5KsrgFMn8mMMUmhc-82" value="..." style="text;html=1;strokeColor=none;fillColor=none;align=center;verticalAlign=middle;whiteSpace=wrap;rounded=0;fontSize=16;opacity=60;fontStyle=1" parent="1" vertex="1">
          <mxGeometry x="605.13" y="1140" width="40" height="20" as="geometry" />
        </mxCell>
        <mxCell id="1TYJ5KsrgFMn8mMMUmhc-83" value="TX1" style="rounded=0;whiteSpace=wrap;html=1;fontSize=12;opacity=40;align=center;fillColor=#ffe6cc;strokeColor=#d79b00;" parent="1" vertex="1">
          <mxGeometry x="504.63" y="1080" width="95" height="30" as="geometry" />
        </mxCell>
        <mxCell id="1TYJ5KsrgFMn8mMMUmhc-84" value="1" style="rounded=0;whiteSpace=wrap;html=1;fontSize=12;opacity=40;align=center;fillColor=#ffe6cc;strokeColor=#d79b00;" parent="1" vertex="1">
          <mxGeometry x="598.76" y="1080" width="30.87" height="30" as="geometry" />
        </mxCell>
        <mxCell id="1TYJ5KsrgFMn8mMMUmhc-86" value="5 ADA" style="rounded=0;whiteSpace=wrap;html=1;fontSize=12;opacity=40;align=center;fillColor=#ffe6cc;strokeColor=#d79b00;fontColor=#FF0000;fontStyle=1" parent="1" vertex="1">
          <mxGeometry x="727.63" y="1080" width="40" height="30" as="geometry" />
        </mxCell>
        <mxCell id="1TYJ5KsrgFMn8mMMUmhc-87" value="TX5" style="rounded=0;whiteSpace=wrap;html=1;fontSize=12;opacity=40;align=center;fillColor=#ffe6cc;strokeColor=#d79b00;" parent="1" vertex="1">
          <mxGeometry x="504.63" y="1110" width="95" height="30" as="geometry" />
        </mxCell>
        <mxCell id="1TYJ5KsrgFMn8mMMUmhc-88" value="9" style="rounded=0;whiteSpace=wrap;html=1;fontSize=12;opacity=40;align=center;fillColor=#ffe6cc;strokeColor=#d79b00;" parent="1" vertex="1">
          <mxGeometry x="598.76" y="1110" width="30.87" height="30" as="geometry" />
        </mxCell>
        <mxCell id="1TYJ5KsrgFMn8mMMUmhc-89" value="Address 1" style="rounded=0;whiteSpace=wrap;html=1;fontSize=12;opacity=40;align=center;fillColor=#ffe6cc;strokeColor=#d79b00;fontColor=#FF0000;fontStyle=1" parent="1" vertex="1">
          <mxGeometry x="642.63" y="1080" width="85" height="30" as="geometry" />
        </mxCell>
        <mxCell id="1TYJ5KsrgFMn8mMMUmhc-94" value="&lt;font style=&quot;font-size: 12px&quot;&gt;&lt;b style=&quot;font-size: 12px&quot;&gt;&lt;i style=&quot;font-size: 12px&quot;&gt;TX15#1&lt;/i&gt;&lt;/b&gt;&lt;/font&gt;" style="text;html=1;strokeColor=none;fillColor=none;align=center;verticalAlign=middle;whiteSpace=wrap;rounded=0;fontSize=12;opacity=40;" parent="1" vertex="1">
          <mxGeometry x="767.63" y="1085" width="53" height="20" as="geometry" />
        </mxCell>
        <mxCell id="1TYJ5KsrgFMn8mMMUmhc-95" value="&lt;font style=&quot;font-size: 12px&quot;&gt;&lt;b style=&quot;font-size: 12px&quot;&gt;&lt;i style=&quot;font-size: 12px&quot;&gt;TX15&lt;/i&gt;&lt;/b&gt;&lt;/font&gt;" style="text;html=1;strokeColor=none;fillColor=none;align=center;verticalAlign=middle;whiteSpace=wrap;rounded=0;fontSize=12;opacity=40;" parent="1" vertex="1">
          <mxGeometry x="609.63" y="996.75" width="53" height="20" as="geometry" />
        </mxCell>
        <mxCell id="1TYJ5KsrgFMn8mMMUmhc-96" value="&lt;div&gt;&lt;i&gt;&lt;b&gt;UtxO (Unspent transaction Output)&lt;/b&gt;&lt;/i&gt;&lt;/div&gt;&lt;div style=&quot;text-align: justify&quot;&gt;&lt;i&gt;The address and its value does not identify the output in a transaction, as more than one address can have the same amount in a tx.&lt;/i&gt;&lt;/div&gt;&lt;div style=&quot;text-align: justify&quot;&gt;&lt;i&gt;Therefore only the &lt;b&gt;Transaction and the index of the address, coin pair in the tx&amp;nbsp;&lt;/b&gt;defines the output.&amp;nbsp;&lt;/i&gt;&lt;br&gt;&lt;/div&gt;&lt;div style=&quot;text-align: justify&quot;&gt;&lt;i&gt;&lt;br&gt;&lt;/i&gt;&lt;/div&gt;&lt;div style=&quot;text-align: justify&quot;&gt;&lt;i&gt;And if it&#39;s not spent then it called &lt;b&gt;UtxO.&lt;/b&gt;&lt;/i&gt;&lt;br&gt;&lt;/div&gt;" style="text;html=1;strokeColor=none;fillColor=none;align=center;verticalAlign=top;whiteSpace=wrap;rounded=0;fontSize=12;opacity=40;" parent="1" vertex="1">
          <mxGeometry x="497" y="880" width="323" height="120" as="geometry" />
        </mxCell>
        <mxCell id="1TYJ5KsrgFMn8mMMUmhc-100" value="&lt;font style=&quot;font-size: 12px&quot;&gt;&lt;b&gt;&lt;i&gt;Wittnesses&lt;/i&gt;&lt;/b&gt;&lt;/font&gt;" style="text;html=1;strokeColor=none;fillColor=none;align=center;verticalAlign=middle;whiteSpace=wrap;rounded=0;fontSize=17;opacity=40;" parent="1" vertex="1">
          <mxGeometry x="269.38000000000005" y="876.25" width="150" height="20" as="geometry" />
        </mxCell>
        <mxCell id="0y1YGnhRQW68st4rbFYn-7" value="Block Number" style="rounded=0;whiteSpace=wrap;html=1;fillColor=#f8cecc;strokeColor=#b85450;align=center;" parent="1" vertex="1">
          <mxGeometry x="209.85" y="40" width="267.5" height="30" as="geometry" />
        </mxCell>
        <mxCell id="j6M4M1rgheEFeJvFUjtu-2" value="Block Slot Number" style="rounded=0;whiteSpace=wrap;html=1;fillColor=#f8cecc;strokeColor=#b85450;align=center;" parent="1" vertex="1">
          <mxGeometry x="210.85" y="70" width="267.5" height="30" as="geometry" />
        </mxCell>
        <mxCell id="j6M4M1rgheEFeJvFUjtu-4" style="edgeStyle=orthogonalEdgeStyle;rounded=0;orthogonalLoop=1;jettySize=auto;html=1;entryX=1;entryY=0.5;entryDx=0;entryDy=0;" parent="1" source="0y1YGnhRQW68st4rbFYn-4" target="1TYJ5KsrgFMn8mMMUmhc-15" edge="1">
          <mxGeometry relative="1" as="geometry">
            <Array as="points">
              <mxPoint x="80" y="115" />
              <mxPoint x="80" y="166" />
            </Array>
          </mxGeometry>
        </mxCell>
      </root>
    </mxGraphModel>
  </diagram>
</mxfile>
